<?xml version="1.0" standalone="no"?>
<svg version="1.1" id="Layer_1" xmlns="http://www.w3.org/2000/svg" xmlns:xlink="http://www.w3.org/1999/xlink" x="0px" y="0px" viewBox="0 0 595.28 595.28" enable-background="new 0 0 595.28 595.28" xml:space="preserve">
<path id="color_x5F_6" fill="#fedb72" d="M262.949,364.995c-1.697-15.409-3.611-36.742-1.464-38.719
	c2.79-2.588,26.05-2.487,33.848-2.386v0.067c0,0,0.471-0.034,1.277-0.034c0.806,0,1.244,0.034,1.244,0.034v-0.067
	c7.798-0.101,31.058-0.202,33.882,2.386c2.067,1.923,0.307,22.143-1.354,37.426c-5.112-16.425-16.102-24.653-32.998-24.653
	C279.519,339.049,268.039,347.705,262.949,364.995z M259.918,390.797c0-0.001,0-0.002,0-0.003l-1.225,0.462L259.918,390.797z
	 M435.532,219.219l-18.521-29.815l-4.067,2.521l18.487,29.848L435.532,219.219z M333.705,390.96c0,0,0,0.001,0,0.001l0.572,0.214
	L333.705,390.96z M482.926,358.678c0-28.907-18.084-43.36-54.217-43.36c-15.126,0-29.411,3.428-42.823,10.319v24.773
	c13.411-7.563,27.697-11.361,42.823-11.361c17.916,0,26.857,7.226,26.857,21.68c0,20.874-24.604,48.402-73.813,82.62v20.638h101.174
	v-23.764h-59.158C463.195,411.316,482.926,384.157,482.926,358.678z M342.66,384.527l-5.355-1.358l3.473,0.888l-3.627,8.195
	l2.618,0.981c0,0,0.269,2.857,0,4.807c-0.235,1.949,9.748,6.117,11.967,8.57c2.218,2.487-0.37,6.252-1.95,6.891
	c-1.546,0.672-2.723,0.269-2.723,0.269l-14.391-8.102c-3.398,23.724-15.148,35.597-35.287,35.597
	c-20.825,0-32.972-11.953-36.434-35.841l-14.824,8.346c0,0-1.177,0.403-2.723-0.269c-1.547-0.639-4.168-4.404-1.95-6.891
	c2.218-2.453,12.235-6.622,11.966-8.571c-0.269-1.95,0-4.807,0-4.807l2.618-0.981l-3.627-8.194l-1.849,0.47
	c0,0-6.634-15.191-13.071-32.52c-3.981,10.527-5.987,23.305-5.987,38.368c0,49.747,21.983,74.654,65.881,74.654
	c43.159,0,64.738-24.907,64.738-74.654c0-15.403-2.052-28.425-6.14-39.086C349.471,368.915,342.66,384.527,342.66,384.527z
	 M158.732,372.089c-7.495,0-13.209,0.774-17.142,2.286l2.487-36.335h64.637v-21.713h-88.2l-5.143,82.62
	c13.411-3.462,27.865-5.176,43.36-5.176c18.924,0,28.403,7.933,28.403,23.764c0,17.209-9.815,25.814-29.445,25.814
	c-14.453,0-28.57-2.42-42.318-7.227v22.689c13.748,4.134,27.529,6.218,41.31,6.218c38.52,0,57.814-15.832,57.814-47.495
	C214.495,387.249,195.907,372.09,158.732,372.089z"></path>
<path id="color_x5F_5" fill="#f7e1d3" d="M323.064,181.977c-2.823,1.613-5.647,2.42-5.647,2.42s-1.479,9.277-6.79,12.538
	l-0.437,9.143c0,0-4,4.504-11.966,5.344v0.135c-0.336,0-0.672-0.034-1.008-0.067c-0.336,0.034-0.639,0.067-1.008,0.067v-0.135
	c-7.966-0.84-11.966-5.344-11.966-5.344l-0.437-9.143c-5.277-3.26-6.756-12.538-6.756-12.538s-2.823-0.807-5.647-2.42
	c-2.823-1.614-3.395-10.555-0.302-11.362c0.37-0.101,0.739-0.168,1.042-0.235c0,0.605,0.034,0.941,0.034,0.941s0-0.706,2.353,0.974
	c2.353,1.681,2.42,8.37,2.42,8.37s0.101-1.143,0.168-3.697c0.101-2.555,1.748-7.16,4.807-9.882
	c3.025-2.722,10.05-3.865,21.109,1.311c11.025,5.21,10.958,1.344,12.504,3.966c1.58,2.656,0.336,10.252,0.336,10.252
	s2.622-2.757,3.563-5.815c0.975-3.092,2.185-4.168,3.395-5.478c0.202-0.236,0.471-0.437,0.807-0.605
	C326.392,171.96,325.787,180.397,323.064,181.977L323.064,181.977z M442.053,235.656l-7.563,2.252
	c-1.714-4.067-3.429-7.462-4.639-8.168c-3.429-2.051-9.58-15.159-9.412-18.689c0.168-3.496,2.05-2.992,2.992-0.404
	c0.941,2.555,8.134,13.445,9.512,13.109c1.378-0.369,1.983-3.025,2.756-3.865c0.773-0.874,2.218-0.773,2.891,0.235
	c0.706,1.042,0.101,3.967-0.504,5.244C437.852,225.875,439.734,230.413,442.053,235.656L442.053,235.656z M465.347,191.321
	L465.347,191.321c-0.706-0.604-1.21-1.277-1.58-1.916c0,0.236-0.034,0.437,0,0.672c0.437,4.773,1.378,7.16,0.571,9.882
	c-0.807,2.723-0.639,4.101,0.403,4.202c1.042,0.067,2.286,2.722,3.227,6.756c1.042,4.235,2.958,6.319,6.857,6.588
	c4-6.319,7.63-11.563,6.218-15.428C477.918,193.606,468.809,194.447,465.347,191.321L465.347,191.321z M512.304,453.971
	L512.304,453.971h10.521V438.24h-12.739L512.304,453.971z M532.337,432.459L532.337,432.459l1.546,10.89h10.487v-10.89H532.337z
	 M259.2,241.673L259.2,241.673h-18.319v35.495c0,0,0.168,7.395,4.067,8.773c1.546,0.538,4.47,1.446,7.428,2.387v-33.781h6.823
	v-12.874H259.2z M333.619,241.673L333.619,241.673v12.873h7.933v33.781c2.958-0.941,5.882-1.849,7.428-2.387
	c3.899-1.378,4.101-8.773,4.101-8.773v-35.495h-19.462L333.619,241.673L333.619,241.673z M252.41,384.056L252.41,384.056l3.63,8.201
	l7.933-2.992l-0.908-7.933L252.41,384.056z M329.215,389.266L329.215,389.266l7.933,2.992l3.63-8.201l-10.655-2.723L329.215,389.266
	z"></path>
<path id="color_x5F_4" fill="#edbf9e" d="M317.407,184.457c0.006-0.036,0.01-0.06,0.01-0.06S317.411,184.434,317.407,184.457z
	 M466.836,234.842c-0.072,0.368-0.141,0.737-0.197,1.109C466.696,235.58,466.764,235.21,466.836,234.842z M319.476,154.718
	c14.311-8.497,29.766-14.039,47.889-14.321c43.281-0.645,75.971,13.758,97.073,38.607c-0.661,1.569-1.245,3.271-1.714,5.157
	c0,0-0.537,2.602,1.043,5.245c0,0.236-0.034,0.436,0,0.671c0.437,4.773,1.378,7.16,0.571,9.882
	c-0.807,2.723-0.639,4.101,0.403,4.202c1.042,0.067,2.286,2.722,3.227,6.756c1.042,4.233,2.956,6.317,6.852,6.587
	c-2.071,3.271-2.414,3.826-0.498,0.774c-4.235,5.177-6.991,10.689-8.941,14.857c-3.395,7.328-4.134,21.613-6.823,21.748
	c-2.823,0.134-13.143-20.201-13.143-20.201l-13.882,4.1c0,0,14.05,41.377,20.369,45.041c7.697,4.437,19.495-5.345,23.966-9.815
	c0,0,0.471,1.849,0.471,5.278c0,3.395,2.891,13.21,3.361,16.907c0.773,6.319,1.21,18.554,1.479,22.218
	c0,0.001,0.001,0.001,0.001,0.002c0.028,0.172,7.6,47.455,10.385,65.138c2.79,17.714,13.008,54.688,13.008,54.688h23.226
	c-0.181-2.121-0.346-4.065-0.49-5.782h19.941c-0.921,1.723-1.885,3.358-2.88,4.911v-4.909h-12.033l1.282,9.03
	c-0.33-0.094-0.677-0.058-0.845,0.415c-0.403,1.042-0.672,2.555-1.513,4.201c-0.504,0.941-4.705,1.345-8.436,1.815v-9.68h-12.739
	l1.955,13.863c-0.327-0.084-0.669-0.039-0.847,0.422c-0.37,1.075-0.639,2.555-1.513,4.201c-0.84,1.647-12.369,1.647-14.151,3.092
	c-0.969,0.786-0.902,1.979-0.63,2.964c-3.587,0.001-7.592,0.002-11.973,0.003v-22.561h-59.158
	c39.426-28.907,59.157-56.066,59.157-81.545c0-28.907-18.084-43.36-54.217-43.36c-15.126,0-29.411,3.428-42.823,10.319v24.773
	c13.411-7.563,27.697-11.361,42.823-11.361c17.916,0,26.857,7.226,26.857,21.68c0,20.874-24.604,48.402-73.813,82.62v19.454
	c-20.47,0.003-42.124,0.007-64.078,0.009c29.621-7.078,44.447-31.224,44.447-72.437c0-15.403-2.052-28.425-6.14-39.086
	c6.919-18.729,13.501-39.732,11.215-46.693c-2.613-8.046-19.999-15.039-24.353-16.679c2.492-0.789,4.817-1.518,6.136-1.977
	c3.899-1.378,4.101-8.773,4.101-8.773v-35.494h0.167c-2.285-40.403-35.932-40.806-42.824-40.469l-0.121,2.517l0.324-6.786
	c2.262-1.389,3.824-3.869,4.878-6.259c-0.106,0.24-0.215,0.48-0.331,0.72l0.16,0.05l4.219-7.799
	c-0.001,0.001-0.003,0.001-0.004,0.002c1.007-0.398,2.261-0.955,3.516-1.672c2.723-1.58,3.328-10.017,0.574-11.26
	C323.638,170.717,325.014,162.565,319.476,154.718z M435.699,219.891c-0.773,0.84-1.378,3.496-2.756,3.865
	c-1.378,0.336-8.571-10.554-9.512-13.109c-0.942-2.588-2.824-3.092-2.992,0.404c-0.168,3.53,5.983,16.638,9.412,18.689
	c1.21,0.706,2.925,4.101,4.639,8.168l7.563-2.252c-2.319-5.243-4.201-9.781-3.967-10.286c0.605-1.277,1.21-4.202,0.504-5.244
	C437.917,219.118,436.472,219.017,435.699,219.891z M412.944,191.925l18.487,29.848l4.101-2.554l-18.521-29.815L412.944,191.925z
	 M337.954,305.435l3.597-7.63V287.52l0.001,0v-32.974h-7.799h-0.134H259.2v-12.873h-0.001v12.874h-6.823v32.873v0.908v9.108
	l4.672,7.596L337.954,305.435z M315.867,189.807c-0.053,0.133-0.106,0.266-0.162,0.401
	C315.761,190.074,315.814,189.94,315.867,189.807z M465.347,191.321c1.942,1.754,5.661,2.26,9.104,3.861
	C471.008,193.58,467.288,193.074,465.347,191.321c-0.604-0.545-1.07-1.118-1.439-1.691
	C464.263,190.2,464.723,190.787,465.347,191.321z M529.67,453.93c-1.881,0.017-3.728,0.031-5.401,0.039
	c0.504,0.538,0.975,1.278,0.975,2.185c0,0.287-0.029,0.702-0.076,1.184C526.585,456.354,528.099,455.222,529.67,453.93z
	 M317.453,184.387c0.006-0.002,0.013-0.004,0.021-0.006C317.468,184.382,317.457,184.385,317.453,184.387z M298.223,211.557
	c-0.336,0-0.671-0.034-1.007-0.067c0,0,0,0,0,0C297.551,211.524,297.887,211.557,298.223,211.557L298.223,211.557z M317.591,184.344
	c-0.009,0.003-0.018,0.006-0.026,0.008C317.572,184.35,317.583,184.347,317.591,184.344z M318.291,184.115
	c0.018-0.006,0.035-0.012,0.054-0.019C318.327,184.102,318.309,184.109,318.291,184.115z M317.981,184.219
	c0.02-0.007,0.04-0.013,0.061-0.02C318.022,184.206,318.001,184.213,317.981,184.219z M317.787,184.283
	c-0.015,0.005-0.029,0.009-0.043,0.014C317.758,184.292,317.773,184.287,317.787,184.283z M317.353,184.747
	c0.018-0.093,0.031-0.162,0.041-0.219C317.385,184.583,317.37,184.66,317.353,184.747z M550.867,365.785
	c0.232,20.938,0.488,44.427,0.627,57.181c3.286-8.964,5.346-19.73,5.145-32.591C556.476,380.541,554.307,372.612,550.867,365.785z
	 M278.417,189.356c-0.101-0.271-0.196-0.538-0.284-0.799C278.221,188.818,278.315,189.084,278.417,189.356z M284.242,206.078
	l-0.437-9.143c-2.597-1.604-4.271-4.665-5.305-7.361c0.11,0.288,0.225,0.578,0.351,0.872c-0.623-0.914-1.331-1.896-1.8-2.374
	c-26.192,23.53-53.975,49.28-94.26,60.818c3.082,2.309,3.764,6.935-0.026,8.95c-5.849,3.059-12.504,2.891-12.504,7.765
	s1.613,3.899,6.991,3.563c5.344-0.302,7.126,4.404,1.445,6.823c-5.47,2.34-8.964,1.844-10.968,4.134h13.153l-9.311,36.168h-16.974
	l-8.403-36.168h12.05c-0.821-1.375-2.252-2.864-4.823-4.134c-6.991-3.395-8.941-9.882-4.874-10.689
	c4.034-0.84,7.462,4.034,9.882,1.109c2.42-2.924-7.126-6.79-11.193-11.327c-0.04-0.045-0.065-0.091-0.103-0.136
	C44.24,266.045,23.874,350.302,25.86,388.392c1.984,38.655,37.21,69.78,49.075,74.385c0.068,0.023,22.512,0.035,57.23,0.041
	c-5.602-1.001-11.201-2.325-16.794-4.007v-22.689c13.748,4.807,27.865,7.227,42.318,7.227c19.63,0,29.445-8.605,29.445-25.814
	c0-15.831-9.479-23.764-28.403-23.764c-15.495,0-29.949,1.714-43.36,5.176l5.143-82.62h88.2v21.713h-64.637l-2.487,36.335
	c3.933-1.512,9.647-2.286,17.142-2.286c37.175,0.001,55.763,15.16,55.763,45.445c0,24.844-11.884,39.937-35.609,45.288
	c29.775,0.001,63.521-0.001,97.877-0.005c-30.15-7.072-45.26-31.22-45.26-72.442c0-15.063,2.006-27.84,5.987-38.368
	c-7.024-18.908-13.815-40.361-11.5-47.411c2.69-8.279,21.014-15.441,24.693-16.805c-2.337-0.739-4.486-1.416-5.734-1.85
	c-3.899-1.378-4.067-8.773-4.067-8.773v-35.495h-1.176c2.521-45.041,44.066-40.369,44.066-40.369l0.235,0.034L284.242,206.078
	 M296.208,211.557 M277.82,187.582c0.072,0.238,0.15,0.485,0.233,0.738C277.97,188.067,277.891,187.82,277.82,187.582z
	 M297.384,441.265c20.14,0,31.89-11.874,35.29-35.596l-11.224-6.319l3.966-11.495l8.289,3.106c0,0,0-0.001,0-0.001l-4.49-1.694
	l0.906-7.918l-1.78-0.451c0,0,1.001-7.631,2.041-17.195c-5.112-16.425-16.102-24.653-32.998-24.653
	c-17.865,0-29.345,8.656-34.435,25.946c0.985,8.949,1.897,15.902,1.897,15.902l-1.779,0.452l0.906,7.916l-4.055,1.529
	c0,0.001,0,0.002,0,0.003l7.855-2.942l3.966,11.495l-10.79,6.075C264.413,429.311,276.559,441.265,297.384,441.265z
	 M317.004,186.287c0.019-0.073,0.038-0.146,0.055-0.216C317.042,186.141,317.022,186.215,317.004,186.287z M316.436,188.239
	c0.014-0.042,0.026-0.082,0.04-0.125C316.462,188.156,316.45,188.196,316.436,188.239z M316.755,187.202
	c0.024-0.082,0.046-0.162,0.069-0.242C316.801,187.039,316.778,187.12,316.755,187.202z M317.321,184.911
	c-0.012,0.059-0.025,0.121-0.039,0.189C317.295,185.034,317.309,184.968,317.321,184.911z M317.141,185.729
	c0.02-0.086,0.038-0.163,0.055-0.242C317.179,185.565,317.161,185.644,317.141,185.729z M316.271,188.723
	c-0.037,0.106-0.076,0.214-0.115,0.322C316.195,188.937,316.234,188.829,316.271,188.723z M318.65,183.988
	c0.018-0.007,0.036-0.013,0.054-0.019C318.686,183.975,318.668,183.982,318.65,183.988z M319.11,183.819
	c-0.018,0.007-0.034,0.013-0.051,0.019C319.077,183.831,319.093,183.825,319.11,183.819z"></path>
<path id="color_x5F_3" fill="#E84393" d="M551.597,432.457h-24.288c0.144,1.717,0.309,3.661,0.49,5.782h-23.226
	c0,0-10.218-36.974-13.008-54.688c-2.79-17.715-10.386-65.142-10.386-65.142c0.235,3.698,31.461,7.429,43.259,5.311
	c11.831-2.084,25.31-9.446,26.957-11.798c0,0-0.174,2.655-1.195,6.905c0.004,0.015,0.004,0.029,0.008,0.044
	c0.037-0.153,0.077-0.312,0.112-0.461l0.059,5.288C550.42,323.8,551.594,432.245,551.597,432.457z M551.597,432.457L551.597,432.457
	c0,0,0,0.001,0,0.001V432.457z M341.854,287.554l-0.303-0.034v10.285l-3.597,7.63l-80.906-0.403l-4.672-7.596V287.42l-1.042,0.134
	c0,0-22.352,7.832-25.344,17.042c-4.437,13.512,24.571,79.931,24.571,79.931l14.285-3.63c0,0-6.756-51.495-3.361-54.621
	c2.79-2.588,26.05-2.487,33.848-2.386v0.067c0,0,0.471-0.034,1.277-0.034c0.806,0,1.244,0.034,1.244,0.034v-0.067
	c7.798-0.101,31.058-0.202,33.882,2.386c3.361,3.126-3.395,54.621-3.395,54.621l14.319,3.63c0,0,28.974-66.419,24.537-79.931
	C364.206,295.386,341.854,287.554,341.854,287.554z"></path>
<path id="color_x5F_2" fill="#c3cfa0" d="M551.395,311.924c-1.647,2.353-15.125,9.714-26.957,11.798
	c-11.798,2.117-43.024-1.614-43.259-5.311c-0.269-3.664-0.706-15.899-1.479-22.218c-0.47-3.697-3.361-13.512-3.361-16.907
	c0-3.429-0.471-5.278-0.471-5.278c-4.471,4.47-16.269,14.252-23.966,9.815c-6.319-3.664-20.369-45.041-20.369-45.041l13.882-4.1
	c0,0,10.32,20.335,13.143,20.201c2.689-0.135,3.428-14.42,6.823-21.748c1.95-4.168,4.706-9.68,8.941-14.857
	c-4.706,7.496-9.681,16.437-7.395,26.319c4.302,18.621,11.226,54.049,55.864,40.772c9.983-2.991,18.016-7.126,24.302-11.898
	C550.084,292.764,552.235,310.747,551.395,311.924z M176.11,247.926c-7.798,2.453-8.269,2.924-4.538-5.345s3.563-19.125-5.849-22.05
	s-11.361,10.218-8.101,18.991c3.227,8.739,1.782,11.831-3.899,8.571c-5.68-3.227-10.521,2.453-6.487,6.991
	c4.067,4.537,13.613,8.403,11.193,11.327c-2.42,2.925-5.848-1.949-9.882-1.109c-4.067,0.807-2.117,7.294,4.874,10.689
	c2.655,1.311,4.1,2.857,4.907,4.269h9.277c1.983-2.454,5.512-1.882,11.092-4.269c5.681-2.419,3.899-7.125-1.445-6.823
	c-5.378,0.336-6.991,1.311-6.991-3.563s6.655-4.706,12.504-7.765C188.58,254.748,183.874,245.505,176.11,247.926z M310.424,201.204
	l-0.235,4.874c0,0-4,4.504-11.966,5.344v0.135c-0.336,0-0.672-0.033-1.008-0.067c-0.336,0.033-0.638,0.067-1.008,0.067v-0.135
	c-7.966-0.84-11.966-5.344-11.966-5.344l-0.235-4.74l-0.235-0.034c0,0-41.545-4.672-44.066,40.369H259.2v12.873h74.553v-12.873
	h19.495C350.963,201.27,317.316,200.867,310.424,201.204z"></path>
<path id="color_x5F_1" fill="#da9461" d="M317.417,184.397c0,0,0.875-0.25,2.135-0.749l-4.219,7.799l-0.16-0.05
	C316.851,187.926,317.417,184.397,317.417,184.397z M315.873,182.615c0,0,2.622-2.757,3.563-5.815
	c0.975-3.092,2.185-4.168,3.395-5.478c0.202-0.236,0.471-0.437,0.807-0.605c0,0,1.529-8.937-4.971-17.104s-18.333-11.333-29.5-9.833
	c-11.167,1.5-11.583,10.833-11.583,10.833c-3.489,1.448-6.611,9.034-6.208,15.936c0.273-0.064,0.54-0.119,0.767-0.169
	c0,0.605,0.034,0.941,0.034,0.941s0-0.706,2.353,0.974c2.353,1.681,2.42,8.37,2.42,8.37s0.101-1.143,0.168-3.697
	c0.101-2.555,1.748-7.16,4.807-9.882c3.025-2.722,10.05-3.865,21.109,1.311c11.025,5.21,10.958,1.344,12.504,3.966
	C317.117,175.019,315.873,182.615,315.873,182.615z M154.597,316.293h16.974l9.311-36.168h-34.688L154.597,316.293z
	 M253.419,393.232c0,0-0.269,2.857,0,4.807c0.269,1.949-9.748,6.118-11.966,8.571c-2.218,2.487,0.403,6.252,1.95,6.891
	c1.546,0.672,2.723,0.269,2.723,0.269l25.613-14.42l-3.966-11.495L253.419,393.232z M339.769,398.04c0.269-1.95,0-4.807,0-4.807
	l-14.353-5.378l-3.966,11.495l25.613,14.42c0,0,1.177,0.403,2.723-0.269c1.58-0.639,4.168-4.404,1.95-6.891
	C349.517,404.157,339.534,399.989,339.769,398.04z M556.773,221.673c-16.201-14.487-25.411-13.882-25.411-23.025
	c-0.034-9.109-3.025-19.73-12.067-20.302c-9.042-0.571-15.26-1.244-20.605-8.336c-5.311-7.059-29.781-10.757-35.966,14.151
	c0,0-0.84,4.033,2.622,7.159c3.462,3.126,12.571,2.286,15.697,10.757c3.126,8.504-18.42,23.899-14.117,42.52
	c4.302,18.622,11.227,54.049,55.864,40.772C567.395,272.058,572.975,236.16,556.773,221.673z M544.37,442.677
	c-0.538,0.336-2.017,0.605-2.017,0.605l-6.689-0.269l-1.277-1.109c0,0-1.244-1.042-1.613,0c-0.403,1.042-0.672,2.555-1.513,4.201
	c-0.504,0.941-4.706,1.345-8.437,1.815v5.412c-0.538,0.336-2.05,0.571-2.05,0.571l-6.689-0.236l-1.244-1.142
	c0,0-1.244-1.042-1.647,0c-0.37,1.075-0.639,2.555-1.513,4.201c-0.84,1.647-12.369,1.647-14.151,3.092
	c-1.781,1.446-0.067,4.269,0,4.639c0.067,0.403,27.092-0.101,27.865,0c0.807,0.134,1.849-6.488,1.849-8.303
	c0-0.907-0.471-1.647-0.975-2.185c8.067-0.034,20.168-0.235,20.705-0.134c0.773,0.134,1.815-6.488,1.815-8.336
	C546.79,443.651,544.908,442.34,544.37,442.677z M275.296,183.796c0.726,2.532,0.996,3.89,1.371,3.984
	c0.36,0.09,1.349,1.44,2.184,2.665c-1.337-3.135-1.802-6.049-1.802-6.049S276.348,184.196,275.296,183.796z"></path>
</svg>