<svg id="visual" viewBox="0 0 600 900" width="600" height="900" xmlns="http://www.w3.org/2000/svg" xmlns:xlink="http://www.w3.org/1999/xlink" version="1.1"><rect x="0" y="0" width="600" height="900" fill="#E58461"></rect><defs><linearGradient id="grad1_0" x1="0%" y1="0%" x2="100%" y2="100%"><stop offset="30%" stop-color="#e58461" stop-opacity="1"></stop><stop offset="70%" stop-color="#e58461" stop-opacity="1"></stop></linearGradient></defs><defs><linearGradient id="grad2_0" x1="0%" y1="0%" x2="100%" y2="100%"><stop offset="30%" stop-color="#e58461" stop-opacity="1"></stop><stop offset="70%" stop-color="#e58461" stop-opacity="1"></stop></linearGradient></defs><g transform="translate(600, 0)"><path d="M0 405.6C-35.5 380.5 -71.1 355.4 -112.8 347.1C-154.5 338.8 -202.4 347.3 -238.4 328.2C-274.5 309 -298.6 262.1 -299.3 217.5C-300 172.8 -277.2 130.4 -291 94.6C-304.8 58.7 -355.2 29.3 -405.6 0L0 0Z" fill="#EBD4CB"></path></g><g transform="translate(0, 900)"><path d="M0 -405.6C29.2 -364.1 58.4 -322.5 102.3 -314.8C146.1 -307.1 204.7 -333.1 227.5 -313.1C250.3 -293 237.4 -226.8 263.7 -191.6C290.1 -156.4 355.6 -152.1 385.8 -125.3C416 -98.6 410.8 -49.3 405.6 0L0 0Z" fill="#EBD4CB"></path></g></svg>